<svg width="294" height="322" viewBox="0 0 294 322" fill="none" xmlns="http://www.w3.org/2000/svg">
<g clip-path="url(#clip0_1731_10646)">
<rect width="294" height="303" fill="url(#paint0_radial_1731_10646)"/>
<rect width="294" height="303" fill="url(#paint1_linear_1731_10646)"/>
<path d="M116.045 122C137.045 143.333 184.562 179.717 196.545 187C213 197 235.545 185.5 235.545 167C235.545 154 231.045 139.5 210.545 139.5C190.045 139.5 133.045 179 96.045 187C73.5645 191.861 61.0184 180.78 58.545 167C55.045 147.5 68.9702 139.5 84.045 139.5C110.045 139.5 157.045 182.5 166.545 200" stroke="#002E66" stroke-width="4"/>
<path fill-rule="evenodd" clip-rule="evenodd" d="M162.074 200.989C161.795 199.754 162.321 198.477 163.39 197.797L165.476 196.469C166.47 195.836 167.743 195.844 168.729 196.489L176.398 201.504C178.175 202.666 178.216 205.255 176.477 206.472L175.585 207.097L177.849 210.203L175.911 211.615L173.62 208.472L171.488 209.965L173.849 213.203L171.911 214.615L169.523 211.34L168.771 211.867C167.024 213.09 164.594 212.15 164.124 210.07L162.074 200.989Z" fill="#002E66"/>
<rect x="49.1299" y="55" width="38" height="38" transform="rotate(-45 49.1299 55)" stroke="white" stroke-width="4"/>
<rect x="222" y="231.87" width="38" height="38" transform="rotate(-45 222 231.87)" stroke="white" stroke-width="4"/>
<rect x="267" y="120.87" width="38" height="38" transform="rotate(-45 267 120.87)" stroke="white" stroke-width="4"/>
<rect x="164.935" y="108.805" width="18.2929" height="18.2929" transform="rotate(-45 164.935 108.805)" stroke="white" stroke-width="4"/>
<rect x="139" y="-0.0649414" width="18.2929" height="18.2929" transform="rotate(-45 139 -0.0649414)" stroke="white" stroke-width="4"/>
<rect x="63" y="252.935" width="18.2929" height="18.2929" transform="rotate(-45 63 252.935)" stroke="white" stroke-width="4"/>
<rect x="236" y="40.9351" width="18.2929" height="18.2929" transform="rotate(-45 236 40.9351)" stroke="white" stroke-width="4"/>
<rect x="14" y="134.935" width="18.2929" height="18.2929" transform="rotate(-45 14 134.935)" stroke="white" stroke-width="4"/>
</g>
<defs>
<radialGradient id="paint0_radial_1731_10646" cx="0" cy="0" r="1" gradientUnits="userSpaceOnUse" gradientTransform="translate(147) rotate(90) scale(303 322.337)">
<stop stop-color="#B1BE5E"/>
<stop offset="1" stop-color="white"/>
</radialGradient>
<linearGradient id="paint1_linear_1731_10646" x1="147" y1="0" x2="147" y2="303" gradientUnits="userSpaceOnUse">
<stop stop-color="#B1BE5E"/>
<stop offset="1" stop-color="white" stop-opacity="0"/>
</linearGradient>
<clipPath id="clip0_1731_10646">
<rect width="294" height="322" rx="24" fill="white"/>
</clipPath>
</defs>
</svg>
