<svg width="295" height="326" viewBox="0 0 295 326" fill="none" xmlns="http://www.w3.org/2000/svg">
<rect width="295" height="326" rx="24" fill="url(#paint0_radial_1731_10257)"/>
<rect width="295" height="326" rx="24" fill="url(#paint1_linear_1731_10257)"/>
<path d="M159.772 125.755H247.735" stroke="white" stroke-width="4"/>
<g opacity="0.08" filter="url(#filter0_f_1731_10257)">
<path d="M184.302 162.822C197.143 168.626 201.306 181.173 193.602 190.846C187.431 198.594 179.658 204.253 173.862 207.849C170.889 209.694 168.232 211.121 166.233 212.125C164.955 212.767 163.653 213.38 162.322 213.958L149 219.619L135.679 213.958C134.342 213.387 133.044 212.766 131.768 212.125C129.769 211.121 127.111 209.694 124.138 207.849C118.342 204.253 110.569 198.594 104.398 190.846C96.694 181.173 100.858 168.626 113.698 162.822C125.567 157.457 140.694 159.731 149 167.745C157.306 159.731 172.434 157.457 184.302 162.822Z" fill="black"/>
</g>
<g opacity="0.24" filter="url(#filter1_f_1731_10257)">
<path d="M170.574 170.545C178.421 173.711 180.965 180.555 176.257 185.831C172.486 190.057 167.736 193.144 164.194 195.105C162.377 196.111 160.753 196.89 159.531 197.438C158.751 197.788 157.955 198.122 157.141 198.437L149 201.525L140.859 198.437C140.043 198.126 139.25 197.787 138.469 197.438C137.248 196.89 135.624 196.111 133.807 195.105C130.265 193.144 125.515 190.057 121.744 185.831C117.035 180.555 119.58 173.711 127.427 170.545C134.68 167.619 143.924 168.859 149 173.23C154.076 168.859 163.321 167.619 170.574 170.545Z" fill="black"/>
</g>
<path d="M102.325 94.9946L149 119.987V183.204L102.325 153.801V94.9946Z" fill="url(#paint2_linear_1731_10257)"/>
<path d="M195.675 94.9951L149 119.988V183.205L195.675 153.801V94.9951Z" fill="url(#paint3_linear_1731_10257)"/>
<path d="M149 77.3836L195.626 95.0437L149 120.062L102.374 95.0437L149 77.3836Z" fill="url(#paint4_linear_1731_10257)"/>
<path d="M149 78.2584L191.187 94.9956L149 117.274L106.813 94.9956L149 78.2584Z" fill="url(#paint5_radial_1731_10257)"/>
<path d="M191.187 94.9955L149 78.2584L149 117.274L191.187 94.9955Z" fill="url(#paint6_linear_1731_10257)"/>
<path d="M35.9037 113.089H80.7832" stroke="white" stroke-width="4"/>
<path d="M68.2168 137.516H115.789" stroke="white" stroke-width="4"/>
<path d="M182.21 56.9966L253.12 56.9966" stroke="white" stroke-width="4"/>
<path d="M224.398 106.756L247.735 106.756" stroke="white" stroke-width="4"/>
<path d="M78.9878 147.468L102.325 147.468" stroke="white" stroke-width="4"/>
<path d="M68.2173 88.6616L91.5547 88.6616" stroke="white" stroke-width="4"/>
<path d="M49.3672 47.9497L110.403 47.9497" stroke="white" stroke-width="4"/>
<path d="M84.3739 222.559H159.771" stroke="white" stroke-width="4"/>
<path d="M100.53 37.0933L134.639 37.0933" stroke="white" stroke-width="4"/>
<path d="M163.361 16.2852H177.723" stroke="white" stroke-width="4"/>
<path d="M170.543 67.8535H200.163" stroke="white" stroke-width="4"/>
<path d="M146.307 212.607H175.928" stroke="white" stroke-width="4"/>
<path d="M187.597 240.653H200.163" stroke="white" stroke-width="4"/>
<path d="M23.3371 187.275H35.9033" stroke="white" stroke-width="4"/>
<path d="M45.7774 256.034H99.6328" stroke="white" stroke-width="4"/>
<path d="M196.572 281.366H250.428" stroke="white" stroke-width="4"/>
<path d="M168.747 151.087H181.313" stroke="white" stroke-width="4"/>
<path d="M178.62 142.944H210.036" stroke="white" stroke-width="4"/>
<path d="M209.138 191.799H238.759" stroke="white" stroke-width="4"/>
<path d="M250.428 147.468H284.536" stroke="white" stroke-width="4"/>
<defs>
<filter id="filter0_f_1731_10257" x="84.5303" y="143.908" width="128.939" height="91.7109" filterUnits="userSpaceOnUse" color-interpolation-filters="sRGB">
<feFlood flood-opacity="0" result="BackgroundImageFix"/>
<feBlend mode="normal" in="SourceGraphic" in2="BackgroundImageFix" result="shape"/>
<feGaussianBlur stdDeviation="8" result="effect1_foregroundBlur_1731_10257"/>
</filter>
<filter id="filter1_f_1731_10257" x="103.38" y="152.956" width="91.2412" height="64.5698" filterUnits="userSpaceOnUse" color-interpolation-filters="sRGB">
<feFlood flood-opacity="0" result="BackgroundImageFix"/>
<feBlend mode="normal" in="SourceGraphic" in2="BackgroundImageFix" result="shape"/>
<feGaussianBlur stdDeviation="8" result="effect1_foregroundBlur_1731_10257"/>
</filter>
<radialGradient id="paint0_radial_1731_10257" cx="0" cy="0" r="1" gradientUnits="userSpaceOnUse" gradientTransform="translate(147.5) rotate(90) scale(326 323.434)">
<stop stop-color="#B9DAE3"/>
<stop offset="1" stop-color="white"/>
</radialGradient>
<linearGradient id="paint1_linear_1731_10257" x1="147.5" y1="0" x2="147.5" y2="326" gradientUnits="userSpaceOnUse">
<stop stop-color="#B9DAE3"/>
<stop offset="1" stop-color="white" stop-opacity="0"/>
</linearGradient>
<linearGradient id="paint2_linear_1731_10257" x1="149" y1="120.722" x2="63.0179" y2="163.431" gradientUnits="userSpaceOnUse">
<stop stop-color="#695175"/>
<stop offset="1" stop-color="#382E46"/>
</linearGradient>
<linearGradient id="paint3_linear_1731_10257" x1="221.929" y1="118.518" x2="148.998" y2="121.412" gradientUnits="userSpaceOnUse">
<stop stop-color="#695175"/>
<stop offset="1" stop-color="#382E46"/>
</linearGradient>
<linearGradient id="paint4_linear_1731_10257" x1="182.027" y1="108.779" x2="71.6668" y2="105.327" gradientUnits="userSpaceOnUse">
<stop stop-color="#695175"/>
<stop offset="1" stop-color="#382E46"/>
</linearGradient>
<radialGradient id="paint5_radial_1731_10257" cx="0" cy="0" r="1" gradientUnits="userSpaceOnUse" gradientTransform="translate(149 117.161) rotate(180) scale(36.3524 36.6408)">
<stop stop-color="#FFCB45"/>
<stop offset="0.453125" stop-color="#B84C80"/>
<stop offset="1" stop-color="#3B2844"/>
<stop offset="1" stop-color="#3B2844" stop-opacity="0"/>
</radialGradient>
<linearGradient id="paint6_linear_1731_10257" x1="149" y1="77.5798" x2="149" y2="118.744" gradientUnits="userSpaceOnUse">
<stop stop-color="#2E2134" stop-opacity="0.56"/>
<stop offset="1" stop-color="#695175" stop-opacity="0"/>
</linearGradient>
</defs>
</svg>
