<svg width="314" height="326" viewBox="0 0 314 326" fill="none" xmlns="http://www.w3.org/2000/svg">
<rect x="19" width="295" height="326" rx="24" fill="url(#paint0_radial_1731_10397)"/>
<rect x="19" width="295" height="326" rx="24" fill="url(#paint1_linear_1731_10397)"/>
<g clip-path="url(#clip0_1731_10397)">
<path d="M166 148.817V89.9663M166 -49V-35.0292V-21.0584V6.88326V15.2905M165.193 148.817L102.606 112.715M26.176 9.35597L54.6154 37.769M66.1932 -22.2947L73.93 -8.9066M165.193 149L158.272 123.192M113.947 -42.0764L124.558 -2.51304M-6.27982 49.9084L54.6154 85.0338M-26.06 97.3845L-18.6838 99.3591M-32 148.817H1.165M136.495 41.9958L144.586 72.1628M99.9162 36.0613L83.0547 6.88326M120.779 72.1628L124.558 78.7025M131.067 89.9663L136.495 99.3591M96.1796 79.2948L122.206 105.297M83.0547 66.182L61.321 44.4685M59.575 87.8946L91.255 106.168M6.75125 106.168L1.165 104.673M43.24 115.936L50.17 117.791L88.285 127.995M99.9162 131.108L110.065 133.825M67 148.817H73.93H113.035M50.17 148.817H21.955M166 58.3156V49.9084" stroke="white" stroke-width="4"/>
<path d="M166 149.183V208.034M166 347V333.029V319.058V291.117V282.71M166.807 149.183L229.394 185.285M305.824 288.644L277.385 260.231M265.807 320.295L258.07 306.907M166.807 149L173.728 174.808M218.053 340.076L207.442 300.513M338.28 248.092L277.385 212.966M358.06 200.616L350.684 198.641M364 149.183H330.835M195.505 256.004L187.414 225.837M232.084 261.939L248.945 291.117M211.221 225.837L207.442 219.297M200.933 208.034L195.505 198.641M235.82 218.705L209.794 192.703M248.945 231.818L270.679 253.532M272.425 210.105L240.745 191.832M325.249 191.832L330.835 193.327M288.76 182.064L281.83 180.209L243.715 170.005M232.084 166.892L221.935 164.175M265 149.183H258.07H218.965M281.83 149.183H310.045M166 239.684V248.092" stroke="white" stroke-width="4"/>
<path d="M166 148.817V89.9663M166 -49V-35.0292V-21.0584V6.88326V15.2905M166.807 148.817L229.394 112.715M305.824 9.35597L277.385 37.769M265.807 -22.2947L258.07 -8.9066M166.807 149L173.728 123.192M218.053 -42.0764L207.442 -2.51304M338.28 49.9084L277.385 85.0338M358.06 97.3845L350.684 99.3591M364 148.817H330.835M195.505 41.9958L187.414 72.1628M232.084 36.0613L248.945 6.88326M211.221 72.1628L207.442 78.7025M200.933 89.9663L195.505 99.3591M235.82 79.2948L209.794 105.297M248.945 66.182L270.679 44.4685M272.425 87.8946L240.745 106.168M325.249 106.168L330.835 104.673M288.76 115.936L281.83 117.791L243.715 127.995M232.084 131.108L221.935 133.825M265 148.817H258.07H218.965M281.83 148.817H310.045M166 58.3156V49.9084" stroke="white" stroke-width="4"/>
<path d="M166 149.183V208.034M166 347V333.029V319.058V291.117V282.71M165.193 149.183L102.606 185.285M26.176 288.644L54.6154 260.231M66.1932 320.295L73.93 306.907M165.193 149L158.272 174.808M113.947 340.076L124.558 300.513M-6.27982 248.092L54.6154 212.966M-26.06 200.616L-18.6838 198.641M-32 149.183H1.165M136.495 256.004L144.586 225.837M99.9162 261.939L83.0547 291.117M120.779 225.837L124.558 219.297M131.067 208.034L136.495 198.641M96.1796 218.705L122.206 192.703M83.0547 231.818L61.321 253.532M59.575 210.105L91.255 191.832M6.75125 191.832L1.165 193.327M43.24 182.064L50.17 180.209L88.285 170.005M99.9162 166.892L110.065 164.175M67 149.183H73.93H113.035M50.17 149.183H21.955M166 239.684V248.092" stroke="white" stroke-width="4"/>
</g>
<g opacity="0.08" filter="url(#filter0_f_1731_10397)">
<path d="M205.33 206.513C219.635 209.526 224.274 216.04 215.691 221.062C208.816 225.085 200.156 228.023 193.699 229.89C190.387 230.847 187.426 231.588 185.198 232.11C183.775 232.443 182.325 232.761 180.841 233.061L166 236L151.159 233.061C149.67 232.765 148.224 232.442 146.802 232.11C144.574 231.588 141.613 230.847 138.301 229.89C131.844 228.023 123.184 225.085 116.309 221.062C107.726 216.04 112.365 209.526 126.67 206.513C139.893 203.728 156.746 204.908 166 209.069C175.254 204.908 192.107 203.728 205.33 206.513Z" fill="black"/>
</g>
<g opacity="0.24" filter="url(#filter1_f_1731_10397)">
<path d="M187.121 214.537C194.804 215.606 197.295 217.917 192.686 219.699C188.994 221.127 184.343 222.169 180.875 222.832C179.097 223.172 177.506 223.435 176.31 223.62C175.546 223.738 174.767 223.851 173.97 223.957L166 225L158.03 223.957C157.23 223.852 156.453 223.738 155.69 223.62C154.494 223.435 152.903 223.172 151.125 222.832C147.657 222.169 143.006 221.127 139.314 219.699C134.705 217.917 137.196 215.606 144.878 214.537C151.98 213.549 161.03 213.967 166 215.444C170.97 213.967 180.02 213.549 187.121 214.537Z" fill="black"/>
</g>
<path d="M164.408 135.723L166 137.818L167.592 135.723C171.271 130.882 177.937 129.534 183.159 132.752C188.838 136.253 190.716 143.867 187.278 149.753C184.246 154.945 180.412 158.758 177.532 161.195C176.058 162.442 174.742 163.405 173.758 164.079C173.134 164.506 172.503 164.912 171.86 165.292L166 168.688L160.135 165.29C160.135 165.289 160.134 165.289 160.133 165.289C159.502 164.92 158.876 164.513 158.242 164.079C157.258 163.405 155.942 162.442 154.468 161.195C151.588 158.758 147.754 154.945 144.722 149.753C141.284 143.867 143.162 136.253 148.841 132.752C154.063 129.534 160.729 130.882 164.408 135.723Z" stroke="black" stroke-width="4"/>
<g filter="url(#filter2_i_1731_10397)">
<path d="M207.515 106.685C222.615 116.016 227.511 136.188 218.451 151.741C205.941 173.215 186.881 185.868 166 198C145.119 185.868 126.059 173.215 113.549 151.741C104.489 136.188 109.385 116.016 124.485 106.685C138.443 98.0598 156.232 101.715 166 114.6C175.768 101.715 193.557 98.0598 207.515 106.685Z" fill="#F24D56"/>
<path d="M207.515 106.685C222.615 116.016 227.511 136.188 218.451 151.741C205.941 173.215 186.881 185.868 166 198C145.119 185.868 126.059 173.215 113.549 151.741C104.489 136.188 109.385 116.016 124.485 106.685C138.443 98.0598 156.232 101.715 166 114.6C175.768 101.715 193.557 98.0598 207.515 106.685Z" fill="url(#paint2_radial_1731_10397)"/>
<path d="M207.515 106.685C222.615 116.016 227.511 136.188 218.451 151.741C205.941 173.215 186.881 185.868 166 198C145.119 185.868 126.059 173.215 113.549 151.741C104.489 136.188 109.385 116.016 124.485 106.685C138.443 98.0598 156.232 101.715 166 114.6C175.768 101.715 193.557 98.0598 207.515 106.685Z" fill="url(#paint3_radial_1731_10397)"/>
</g>
<defs>
<filter id="filter0_f_1731_10397" x="96" y="189" width="140" height="63" filterUnits="userSpaceOnUse" color-interpolation-filters="sRGB">
<feFlood flood-opacity="0" result="BackgroundImageFix"/>
<feBlend mode="normal" in="SourceGraphic" in2="BackgroundImageFix" result="shape"/>
<feGaussianBlur stdDeviation="8" result="effect1_foregroundBlur_1731_10397"/>
</filter>
<filter id="filter1_f_1731_10397" x="121" y="198" width="90" height="43" filterUnits="userSpaceOnUse" color-interpolation-filters="sRGB">
<feFlood flood-opacity="0" result="BackgroundImageFix"/>
<feBlend mode="normal" in="SourceGraphic" in2="BackgroundImageFix" result="shape"/>
<feGaussianBlur stdDeviation="8" result="effect1_foregroundBlur_1731_10397"/>
</filter>
<filter id="filter2_i_1731_10397" x="109" y="102" width="114" height="96" filterUnits="userSpaceOnUse" color-interpolation-filters="sRGB">
<feFlood flood-opacity="0" result="BackgroundImageFix"/>
<feBlend mode="normal" in="SourceGraphic" in2="BackgroundImageFix" result="shape"/>
<feColorMatrix in="SourceAlpha" type="matrix" values="0 0 0 0 0 0 0 0 0 0 0 0 0 0 0 0 0 0 127 0" result="hardAlpha"/>
<feOffset/>
<feGaussianBlur stdDeviation="8"/>
<feComposite in2="hardAlpha" operator="arithmetic" k2="-1" k3="1"/>
<feColorMatrix type="matrix" values="0 0 0 0 0 0 0 0 0 0 0 0 0 0 0 0 0 0 0.25 0"/>
<feBlend mode="normal" in2="shape" result="effect1_innerShadow_1731_10397"/>
</filter>
<radialGradient id="paint0_radial_1731_10397" cx="0" cy="0" r="1" gradientUnits="userSpaceOnUse" gradientTransform="translate(166.5) rotate(90) scale(326 323.434)">
<stop stop-color="#CDA2AD"/>
<stop offset="1" stop-color="white"/>
</radialGradient>
<linearGradient id="paint1_linear_1731_10397" x1="166.5" y1="0" x2="166.5" y2="326" gradientUnits="userSpaceOnUse">
<stop stop-color="#CDA2AD"/>
<stop offset="1" stop-color="white" stop-opacity="0"/>
</linearGradient>
<radialGradient id="paint2_radial_1731_10397" cx="0" cy="0" r="1" gradientUnits="userSpaceOnUse" gradientTransform="translate(138.64 135.143) rotate(40.886) scale(33.174 33.186)">
<stop stop-color="#FF7D75"/>
<stop offset="1" stop-color="#FF303C" stop-opacity="0"/>
</radialGradient>
<radialGradient id="paint3_radial_1731_10397" cx="0" cy="0" r="1" gradientUnits="userSpaceOnUse" gradientTransform="translate(191.08 136.286) rotate(143.061) scale(34.2309 34.2548)">
<stop stop-color="#FF7D75"/>
<stop offset="1" stop-color="#FF303C" stop-opacity="0"/>
</radialGradient>
<clipPath id="clip0_1731_10397">
<rect width="314" height="308" fill="white"/>
</clipPath>
</defs>
</svg>
