<svg width="960" height="540" viewBox="0 0 960 540" fill="none" xmlns="http://www.w3.org/2000/svg">
<g clip-path="url(#clip0_7_5)">
<path d="M960 0H0V540H960V0Z" fill="white"/>
<path d="M327.351 194.891C319.426 192.767 311.116 208.225 311.116 208.225C311.116 208.225 320.474 219.613 325.189 227.74C331.547 238.698 327.041 250.696 337.584 257.718C348.43 264.941 375.118 269.295 370.942 256.952C368.905 250.931 364.399 249.316 359.147 245.735C356.303 243.796 371.61 263.467 379.61 258.497C388.502 252.973 372.164 243.164 363.832 236.827C358.643 232.881 353.899 233.507 348.952 229.261C341.391 222.771 342.604 214.944 336.911 206.766C333.509 201.88 333.101 196.432 327.351 194.891Z" fill="black"/>
<path d="M312.265 187.481C306.956 189.003 305.927 200.123 305.927 200.123L299.029 205.439L307.146 214.048L311.692 207.526C311.692 207.526 314.73 210.52 316.423 209.462C318.038 208.454 317.042 204.627 317.042 204.627L325.03 199.458C325.03 199.458 324.232 198.452 323.808 196.74C323.335 194.835 325.131 191.889 325.131 191.889L322.752 191.16C322.752 191.16 316.437 186.285 312.265 187.481Z" fill="#E05F28" stroke="#01387B" stroke-width="2"/>
<path d="M295.026 239.58L271.11 227.472C271.11 227.472 268.659 231.155 267.453 233.708C264.931 239.048 263.654 248.347 263.654 248.347L294.762 261.454C294.762 261.454 293.451 254.7 292.672 250.407C291.924 246.289 295.026 239.58 295.026 239.58Z" fill="#E05F28" stroke="#01387B" stroke-width="2"/>
<path d="M340.935 298.854L327.605 312.406C327.605 312.406 339.295 324.596 349.18 326.634C351.098 327.03 352.194 327.249 354.153 327.291C356.112 327.333 362.715 324.661 366.876 322C371.18 319.247 376.528 316.5 376.528 316.5C376.528 316.5 369.74 313.389 368.571 314.143C367.976 314.525 374.167 315.714 376.528 314.964C378.812 314.238 377.5 313.5 377.5 313.5C377.5 313.5 369.327 311.036 366.876 311.512C364.432 311.986 361.517 314.964 361.517 314.964L340.935 298.854Z" fill="#E05F28" stroke="#01387B" stroke-width="2"/>
<path d="M308.337 215.357L297.822 203.426C297.822 203.426 291.083 206.957 285.119 211.727C278.966 216.649 273.525 222.855 269.697 225.615C262.677 230.678 261.395 230.371 261.395 230.371C261.395 230.371 275.674 235.928 283.074 242.077C290.783 248.483 299.028 262.181 299.028 262.181L327.684 317.63C327.684 317.63 339.777 319.408 347.123 317.492C354.05 315.685 363.308 308.886 363.308 308.886L308.875 218.204L308.337 215.357Z" fill="#FFCCCF"/>
<path d="M269.697 225.615C262.677 230.678 261.395 230.371 261.395 230.371C261.395 230.371 275.674 235.928 283.074 242.077C290.783 248.483 299.028 262.181 299.028 262.181L327.684 317.63C327.684 317.63 339.777 319.408 347.123 317.492C354.05 315.685 363.308 308.886 363.308 308.886L308.875 218.204L308.337 215.357L297.822 203.426C297.822 203.426 291.083 206.957 285.119 211.727M269.697 225.615C273.525 222.855 278.966 216.649 285.119 211.727M269.697 225.615L285.119 211.727" stroke="#01387B" stroke-width="2"/>
<path d="M294.713 261.685L263.682 248.562C263.682 248.562 267.176 273.264 260.887 268.083C245.46 252.01 217.778 219.85 205.885 221.157C187.164 223.214 190.91 259.26 192.097 276.732C193.285 294.204 192.406 317.185 197.046 334.071C200.855 347.93 206.228 379.525 211.091 366C213.525 359.233 209.598 356.733 211.091 349.699C212.468 343.215 218.68 340.613 217.688 334.059C216.878 328.706 209.965 322.544 209.965 322.544L215.001 297.408L223.171 272.623C223.171 272.623 232.34 315.48 241.079 334.235C249.076 351.399 261.951 360.123 279 356C303.463 350.085 305.266 328.211 306.378 307.136C307.344 288.836 294.713 261.685 294.713 261.685Z" fill="#658FB6" stroke="#01387B" stroke-width="2"/>
<path d="M197.095 333.841C192.455 316.955 193.839 306.619 192.651 289.147L215.05 297.178L210.014 322.314C210.014 322.314 216.927 328.475 217.737 333.829C218.729 340.383 212.517 342.985 211.141 349.469C209.647 356.503 213.574 359.233 211.141 366C206.277 379.525 200.904 347.7 197.095 333.841Z" fill="white" stroke="#01387B" stroke-width="2"/>
<path d="M214.102 300.896L193.187 294.472L193.291 297.519L213.622 303.346L214.102 300.896Z" fill="#FFCCCF"/>
<path d="M317.562 204.882C317.907 206.706 323.618 205.152 325.379 204.819C327.14 204.486 328.288 202.737 327.943 200.913C327.598 199.089 324.017 196.937 322.256 197.27C320.495 197.603 317.638 202.39 317.562 204.882Z" fill="black"/>
<path opacity="0.9" d="M316.82 198.275C316.344 197.537 317.52 195.932 318.116 195.547C318.712 195.163 321.02 194.522 321.496 195.26C321.971 195.998 321.205 197.969 320.126 198.665C319.047 199.36 317.295 199.013 316.82 198.275Z" fill="#E0774B"/>
<path opacity="0.9" fill-rule="evenodd" clip-rule="evenodd" d="M317.002 197.731C317.328 196.986 317.697 196.141 318.024 195.931C318.608 195.554 320.853 194.971 321.902 194.726C321.669 194.583 321.299 194.498 320.865 194.46L321.059 194.178C321.176 194.009 321.057 193.725 320.837 193.652C320.724 193.613 320.613 193.645 320.552 193.733L320.103 194.386C320.091 194.403 320.082 194.421 320.075 194.44C320.013 194.442 319.95 194.445 319.887 194.448L319.955 193.745C319.975 193.536 319.827 193.312 319.623 193.243C319.451 193.185 319.29 193.256 319.232 193.413L318.912 194.279C318.898 194.315 318.89 194.353 318.885 194.39L318.426 193.416C318.362 193.28 318.192 193.231 318.066 193.313C317.988 193.363 317.944 193.451 317.952 193.543L318.053 194.748C317.802 194.825 317.589 194.916 317.434 195.016C316.78 195.437 316.645 196.606 316.51 197.781C316.464 198.18 316.418 198.581 316.352 198.952C316.513 198.848 316.744 198.321 317.002 197.731Z" fill="#002E66"/>
<path d="M0 356L53.3 363.5C106.7 371 213.3 386 320 344.5C426.7 303 533.3 205 640 160.3C746.7 115.7 853.3 124.3 906.7 128.7L960 133V541H906.7C853.3 541 746.7 541 640 541C533.3 541 426.7 541 320 541C213.3 541 106.7 541 53.3 541H0V356Z" fill="#EFBD17"/>
</g>
<defs>
<clipPath id="clip0_7_5">
<rect width="960" height="540" fill="white"/>
</clipPath>
</defs>
</svg>
